# xmcd
#
# Track frame offsets: 
#        150
#        18832
#        35277
#        52600
#        74778
#        101278
#        118180
#        133610
#        151774
#        176983
#        188384
#        213578
#
# Disc length: 3062 seconds
#
# Revision: 0
# Processed by: cddbd v1.5.2PL0 Copyright (c) Steve Scherf et al.
# Submitted via: ExactAudioCopy v0.99pb3
#
DISCID=9a0bf40c
DTITLE=Buddy Flett - Mississippi Sea
DYEAR=2007
DGENRE=Blues
TTITLE0=Baby's Back In Town
TTITLE1=Done Somebody Wrong
TTITLE2=I Hear Ya Callin'
TTITLE3=Mississippi Sea
TTITLE4=Stoner Hill
TTITLE5=Hideaway
TTITLE6=Dance For Me
TTITLE7=Mama's Kitchen
TTITLE8=Run For The Levee
TTITLE9=Linin' The Track
TTITLE10=What Have I Done
TTITLE11=I Get Evil (Don't You Lie To Me)
EXTD=
EXTT0=
EXTT1=
EXTT2=
EXTT3=
EXTT4=
EXTT5=
EXTT6=
EXTT7=
EXTT8=
EXTT9=
EXTT10=
EXTT11=
PLAYORDER=
